:version 1.10
:name ASF
:units
  mass 1
  length 1
  angle deg
:documentation
  ASF file generated by Kaydara
:root
  axis xyz
  order  tx ty tz rx ry rz
  position 0 0 0
  orientation 0 0 0
:bonedata
  begin
    id 1
    name RightUpLegDummy
    direction -0.718183 -0.695806 0.00816078
    length 4.904
    axis 0 0 0 xyz
  end
  begin
    id 2
    name RightUpLeg
    direction -0.0736652 -0.994202 0.0783343
    length 17.4976
    axis -2.72909 -3.00389 -4.00133 xyz
    dof rx ry rz
  end
  begin
    id 3
    name RightLeg
    direction -0.0389037 -0.994596 -0.0962598
    length 16.5821
    axis 3.95836 -18.5909 -4.46993 xyz
    dof rx ry rz
  end
  begin
    id 4
    name RightFoot
    direction -0.311643 -0.412678 0.855906
    length 3.77069
    axis -1.99483 -18.8351 -3.27644 xyz
    dof rx ry rz
  end
  begin
    id 5
    name RightToes
    direction -0.317852 0.0389852 0.947339
    length 3.85082
    axis -2.00228 -18.1713 -3.25211 xyz
    dof rx ry rz
  end
  begin
    id 6
    name SpineDummy
    direction 8.3039e-015 1 4.44677e-016
    length 4.6813
    axis 0 0 0 xyz
  end
  begin
    id 7
    name Spine
    direction -0.000262373 0.999988 0.00493267
    length 10.1015
    axis -0.00246081 0.00062579 0.0150362 xyz
    dof rx ry rz
  end
  begin
    id 8
    name Spine1
    direction 0 0 0
    length 0
    axis -0.00349562 0.000650293 0.0196666 xyz
    dof rx ry rz
  end
  begin
    id 9
    name HEadDummy
    direction -0.000343232 0.999999 0.00123745
    length 3.43865
    axis -0.00349562 0.000650293 0.0196666 xyz
  end
  begin
    id 10
    name HEad
    direction -0.0461221 0.980933 0.188796
    length 5.12695
    axis -0.00351404 -7.04812 0.0199272 xyz
    dof rx ry rz
  end
  begin
    id 11
    name LeftShoulder1Dummy
    direction 0.998904 -0.0399089 -0.0244534
    length 3.5433
    axis -0.00349562 0.000650293 0.0196666 xyz
  end
  begin
    id 12
    name LeftShoulder1
    direction 0.99951 1.64443e-005 0.0312999
    length 4.05031
    axis -0.00349562 0.000650293 0.0196666 xyz
    dof rx ry rz
  end
  begin
    id 13
    name LeftArm
    direction 0.984791 0.0515299 0.165927
    length 12.9126
    axis -64.823 -10.7743 5.20463 xyz
    dof rx ry rz
  end
  begin
    id 14
    name LeftForeArm
    direction 0.984968 0.0534808 0.16425
    length 10.8596
    axis -30.0462 -7.70601 1.87451 xyz
    dof rx ry rz
  end
  begin
    id 15
    name LeftHand
    direction 0.975871 0.0289682 0.216418
    length 6.62295
    axis -20.1348 -6.98077 1.86072 xyz
    dof rx ry rz
  end
  begin
    id 16
    name RightShoulderDummy
    direction -0.998877 -0.0405946 -0.0244307
    length 3.5433
    axis -0.00349562 0.000650293 0.0196666 xyz
  end
  begin
    id 17
    name RightShoulder
    direction -0.998933 -0.0249743 -0.0388558
    length 4.05031
    axis -0.0205316 -4.02113 1.41395 xyz
    dof rx ry rz
  end
  begin
    id 18
    name RightArm
    direction -0.997559 0.068664 0.0127103
    length 12.9638
    axis -67.3882 1.84188 -6.15987 xyz
    dof rx ry rz
  end
  begin
    id 19
    name RightForeArm
    direction -0.991508 0.0912848 0.0926241
    length 10.8312
    axis -22.1975 3.41087 -4.28711 xyz
    dof rx ry rz
  end
  begin
    id 20
    name RightHand
    direction -0.989262 0.0600788 0.133232
    length 6.57864
    axis -12.2911 2.17515 -4.39675 xyz
    dof rx ry rz
  end
  begin
    id 21
    name LeftUpLegDummy
    direction 0.718183 -0.695806 0.00816078
    length 4.904
    axis 0 0 0 xyz
  end
  begin
    id 22
    name LeftUpLeg
    direction 0.0831398 -0.99469 0.0606531
    length 17.4976
    axis -1.71016 2.29552 4.63832 xyz
    dof rx ry rz
  end
  begin
    id 23
    name LeftLeg
    direction 0.0498442 -0.991778 -0.117862
    length 16.5821
    axis 5.13757 15.5727 5.13348 xyz
    dof rx ry rz
  end
  begin
    id 24
    name LeftFoot
    direction 0.269026 -0.433896 0.85986
    length 3.77069
    axis -0.576502 15.6961 4.10267 xyz
    dof rx ry rz
  end
  begin
    id 25
    name LeftToes
    direction 0.277311 0.0251143 0.960452
    length 3.85048
    axis -0.576502 15.6961 4.10267 xyz
    dof rx ry rz
  end
:hierarchy
  begin
    root RightUpLegDummy SpineDummy LeftUpLegDummy
    RightUpLegDummy RightUpLeg
    RightUpLeg RightLeg
    RightLeg RightFoot
    RightFoot RightToes
    SpineDummy Spine
    Spine Spine1
    Spine1 HEadDummy LeftShoulder1Dummy RightShoulderDummy
    HEadDummy HEad
    LeftShoulder1Dummy LeftShoulder1
    LeftShoulder1 LeftArm
    LeftArm LeftForeArm
    LeftForeArm LeftHand
    RightShoulderDummy RightShoulder
    RightShoulder RightArm
    RightArm RightForeArm
    RightForeArm RightHand
    LeftUpLegDummy LeftUpLeg
    LeftUpLeg LeftLeg
    LeftLeg LeftFoot
    LeftFoot LeftToes
  end

:SAMPLES-PER-SECOND 30
:FULLY-SPECIFIED
:DEGREES
61
root  -4.72864 23.9004 84.3856 -169.253 8.06578 -175.201
RightUpLeg  -72.7369 -6.78821 8.65529
RightLeg  102.667 20.0387 -14.8677
RightFoot  -41.2162 2.25737 8.46912
RightToes  -1.16415e-010 -3.18055e-015 -2.98177e-016
Spine  31.9803 0.182152 7.70427
Spine1  1.97316 1.12929 0.451581
HEad  -10.6305 -3.98291 -0.504439
LeftShoulder1  -3.88251e-019 9.70628e-020 -3.87848e-018
LeftArm  -26.7633 19.4086 -53.7953
LeftForeArm  3.80864 -43.6834 11.1258
LeftHand  -2.67736 -7.33183 25.0919
RightShoulder  5.35589 9.46985 26.1161
RightArm  -1.49602 -25.403 27.6748
RightForeArm  -1.44495 35.2349 -19.3402
RightHand  -3.96067 5.6071 -39.8671
LeftUpLeg  -70.9786 9.42514 4.14862
LeftLeg  106.796 -17.1951 10.9448
LeftFoot  -44.7805 -2.65576 -8.90632
LeftToes  1.69338e-011 3.79281e-011 -2.20049e-011
62
root  -4.6935 23.8819 84.3519 -168.954 8.14287 -175.316
RightUpLeg  -73.0491 -6.58425 8.64197
RightLeg  102.667 20.1177 -15.1031
RightFoot  -41.3434 2.26689 8.46524
RightToes  -1.16415e-010 -3.18055e-015 -2.98177e-016
Spine  32.3483 0.0511682 7.78706
Spine1  1.40596 1.10473 -0.0657087
HEad  -11.0976 -3.80826 -0.182151
LeftShoulder1  -3.88251e-019 9.70628e-020 -3.87848e-018
LeftArm  -26.093 18.6256 -53.4972
LeftForeArm  3.93315 -43.2741 10.966
LeftHand  -2.53078 -6.82663 24.746
RightShoulder  5.42316 9.54465 26.3506
RightArm  -1.43431 -25.8109 27.6187
RightForeArm  -1.12585 35.0097 -19.2066
RightHand  -3.9691 5.61024 -39.9347
LeftUpLeg  -71.1841 9.4496 4.07243
LeftLeg  106.793 -17.2237 11.0208
LeftFoot  -44.9545 -2.70412 -9.02193
LeftToes  1.69338e-011 3.79281e-011 -2.20049e-011
63
root  -4.64685 23.8609 84.3368 -168.823 8.21046 -175.566
RightUpLeg  -73.286 -6.34292 8.51176
RightLeg  102.619 20.2544 -15.5464
RightFoot  -41.4337 2.26851 8.44213
RightToes  -1.16415e-010 -3.18055e-015 -2.98177e-016
Spine  32.6726 0.0658901 7.629
Spine1  1.24718 1.12134 -0.360757
HEad  -11.651 -3.83415 0.340821
LeftShoulder1  -3.88251e-019 9.70628e-020 -3.87848e-018
LeftArm  -25.1926 16.9106 -53.1897
LeftForeArm  5.66488 -42.5079 10.7526
LeftHand  -2.47935 -6.80359 24.312
RightShoulder  5.31848 9.4707 25.9006
RightArm  -2.0628 -26.7684 28.2653
RightForeArm  -0.838744 34.8884 -19.1406
RightHand  -3.95965 5.55397 -40.0337
LeftUpLeg  -71.2817 9.48721 3.90464
LeftLeg  106.815 -17.1868 10.9132
LeftFoot  -45.0282 -2.76291 -9.20369
LeftToes  1.69338e-011 3.79281e-011 -2.20049e-011
64
root  -4.57696 23.8335 84.3301 -168.804 8.19757 -175.911
RightUpLeg  -73.458 -6.05696 8.30644
RightLeg  102.581 20.4443 -16.1364
RightFoot  -41.5173 2.29504 8.51966
RightToes  -1.16415e-010 -3.18055e-015 -2.98177e-016
Spine  33.0743 0.128783 7.16591
Spine1  1.23798 1.06463 -0.358894
HEad  -12.3542 -3.80195 1.02781
LeftShoulder1  -3.88251e-019 9.70628e-020 -3.87848e-018
LeftArm  -23.8573 14.7626 -52.606
LeftForeArm  8.11203 -41.967 10.6679
LeftHand  -2.63346 -7.36713 24.6249
RightShoulder  5.14923 9.33116 25.2045
RightArm  -2.91705 -27.918 29.2726
RightForeArm  -0.720928 34.94 -19.1804
RightHand  -4.01101 5.6326 -40.2473
LeftUpLeg  -71.3247 9.45067 3.71146
LeftLeg  106.842 -17.1571 10.8216
LeftFoot  -44.9405 -2.7858 -9.31081
LeftToes  1.69338e-011 3.79281e-011 -2.20049e-011
65
root  -4.48514 23.7981 84.3125 -168.668 8.12598 -176.229
RightUpLeg  -73.7105 -5.75348 8.15371
RightLeg  102.627 20.6269 -16.6281
RightFoot  -41.6502 2.35518 8.71239
RightToes  -1.16415e-010 -3.18055e-015 -2.98177e-016
Spine  33.6547 0.0987206 6.57443
Spine1  0.877269 0.855743 -0.216648
HEad  -13.0812 -3.36786 1.64488
LeftShoulder1  -3.88251e-019 9.70628e-020 -3.87848e-018
LeftArm  -22.0547 12.7727 -51.6139
LeftForeArm  9.12054 -42.0083 10.7346
LeftHand  -2.81021 -7.72661 25.5043
RightShoulder  5.0763 9.28263 24.8773
RightArm  -3.26078 -28.8737 29.9405
RightForeArm  -0.723472 35.2158 -19.3629
RightHand  -4.0464 5.69895 -40.3521
LeftUpLeg  -71.4627 9.34983 3.60237
LeftLeg  106.867 -17.1728 10.8495
LeftFoot  -44.9554 -2.80556 -9.37472
LeftToes  1.69338e-011 3.79281e-011 -2.20049e-011
66
root  -4.38626 23.7597 84.2784 -168.292 8.10364 -176.442
RightUpLeg  -74.1492 -5.44004 8.1419
RightLeg  102.73 20.7665 -16.9392
RightFoot  -41.8073 2.42264 8.92373
RightToes  -1.16415e-010 -3.18055e-015 -2.98177e-016
Spine  34.2334 0.0281209 6.07307
Spine1  0.222388 0.602373 -0.0250523
HEad  -13.7175 -2.6985 2.02953
LeftShoulder1  -3.88251e-019 9.70628e-020 -3.87848e-018
LeftArm  -20.2538 10.8618 -50.5381
LeftForeArm  8.45229 -42.29 10.8109
LeftHand  -2.83438 -7.58913 25.9806
RightShoulder  5.10213 9.33802 24.919
RightArm  -3.18842 -29.6113 30.166
RightForeArm  -0.763689 35.5792 -19.6043
RightHand  -3.94805 5.43343 -40.332
LeftUpLeg  -71.7852 9.28552 3.62918
LeftLeg  106.932 -17.1599 10.7821
LeftFoot  -45.1173 -2.90725 -9.67544
LeftToes  1.69338e-011 3.79281e-011 -2.20049e-011
67
root  -4.2932 23.7322 84.2323 -167.788 8.1741 -176.565
RightUpLeg  -74.6684 -5.1085 8.24494
RightLeg  102.777 20.8819 -17.2254
RightFoot  -41.9181 2.47447 9.08771
RightToes  -1.16415e-010 -3.18055e-015 -2.98177e-016
Spine  34.5446 0.0393857 5.74059
Spine1  -0.18079 0.441507 0.26928
HEad  -14.3136 -2.17939 2.20719
LeftShoulder1  -3.88251e-019 9.70628e-020 -3.87848e-018
LeftArm  -19.0144 8.61045 -49.7741
LeftForeArm  7.79777 -42.2377 10.7569
LeftHand  -2.76933 -7.39421 25.7921
RightShoulder  5.12144 9.38554 24.9384
RightArm  -3.36172 -30.2249 30.428
RightForeArm  -0.696052 35.7382 -19.7148
RightHand  -3.82899 5.04558 -40.5373
LeftUpLeg  -72.1961 9.29282 3.72659
LeftLeg  107 -17.1184 10.64
LeftFoot  -45.1099 -3.04077 -10.1402
LeftToes  1.69338e-011 3.79281e-011 -2.20049e-011
68
root  -4.20824 23.7315 84.1684 -167.313 8.30135 -176.67
RightUpLeg  -75.0685 -4.78572 8.35284
RightLeg  102.732 20.9793 -17.5391
RightFoot  -41.9879 2.51079 9.20451
RightToes  -1.16415e-010 -3.18055e-015 -2.98177e-016
Spine  34.5748 0.116135 5.5367
Spine1  -0.0942539 0.360017 0.682248
HEad  -14.9112 -1.82398 2.26603
LeftShoulder1  -3.88251e-019 9.70628e-020 -3.87848e-018
LeftArm  -18.3493 5.9995 -49.3222
LeftForeArm  8.02693 -41.6745 10.5502
LeftHand  -2.745 -7.46604 25.4347
RightShoulder  5.08169 9.36822 24.7426
RightArm  -3.96441 -30.8165 30.953
RightForeArm  -0.163565 35.6639 -19.6909
RightHand  -3.84653 5.03251 -40.7604
LeftUpLeg  -72.476 9.29554 3.78139
LeftLeg  106.917 -17.1662 10.8067
LeftFoot  -44.9557 -3.10411 -10.4131
LeftToes  1.69338e-011 3.79281e-011 -2.20049e-011
69
root  -4.12965 23.7675 84.0709 -166.86 8.49184 -176.779
RightUpLeg  -75.2871 -4.51263 8.41555
RightLeg  102.646 21.0148 -17.7155
RightFoot  -42.0777 2.53342 9.2608
RightToes  -1.16415e-010 -3.18055e-015 -2.98177e-016
Spine  34.533 0.166294 5.42023
Spine1  0.0943122 0.264348 1.18103
HEad  -15.3951 -1.3563 2.22484
LeftShoulder1  -3.88251e-019 9.70628e-020 -3.87848e-018
LeftArm  -17.7731 3.49027 -48.8989
LeftForeArm  8.44175 -40.8095 10.2441
LeftHand  -2.79298 -7.71071 25.3817
RightShoulder  5.02201 9.33222 24.4669
RightArm  -4.50255 -31.5236 31.3992
RightForeArm  1.08002 35.6921 -19.7708
RightHand  -3.80653 5.21877 -39.725
LeftUpLeg  -72.5157 9.24782 3.80214
LeftLeg  106.64 -17.2761 11.2392
LeftFoot  -45.0394 -3.19215 -10.6879
LeftToes  1.69338e-011 3.79281e-011 -2.20049e-011
70
root  -4.05804 23.849 83.9372 -166.328 8.79622 -176.823
RightUpLeg  -75.3891 -4.27105 8.52363
RightLeg  102.466 20.9483 -17.6874
RightFoot  -42.185 2.53376 9.22488
RightToes  -1.16415e-010 -3.18055e-015 -2.98177e-016
Spine  34.5507 0.188207 5.36589
Spine1  -0.0536661 0.11609 1.86852
HEad  -15.6835 -0.668425 2.07445
LeftShoulder1  -3.88251e-019 9.70628e-020 -3.87848e-018
LeftArm  -16.9357 1.55621 -48.2654
LeftForeArm  8.5849 -39.8656 9.90492
LeftHand  -2.88279 -7.97547 25.6505
RightShoulder  4.98817 9.33014 24.2746
RightArm  -4.52603 -32.3294 31.4386
RightForeArm  2.64323 36.0133 -20.0652
RightHand  -3.34309 4.85851 -36.3017
LeftUpLeg  -72.4233 9.22512 3.89776
LeftLeg  106.272 -17.2874 11.4692
LeftFoot  -45.2066 -3.41957 -11.4126
LeftToes  1.69338e-011 3.79281e-011 -2.20049e-011
71
root  -3.99371 23.9935 83.7817 -165.683 9.20953 -176.75
RightUpLeg  -75.3826 -3.99534 8.74304
RightLeg  102.025 20.7749 -17.5884
RightFoot  -42.2469 2.5105 9.11418
RightToes  -1.16415e-010 -3.18055e-015 -2.98177e-016
Spine  34.564 0.232591 5.32526
Spine1  -0.48846 -0.0736936 2.8844
HEad  -15.9105 0.123595 1.90974
LeftShoulder1  -3.88251e-019 9.70628e-020 -3.87848e-018
LeftArm  -15.9358 0.42513 -47.314
LeftForeArm  8.98513 -39.0294 9.62642
LeftHand  -2.97118 -8.22963 25.9181
RightShoulder  4.98062 9.35259 24.1896
RightArm  -4.0608 -32.9743 31.1518
RightForeArm  3.7893 36.4303 -20.4082
RightHand  -2.50047 3.70191 -30.8619
LeftUpLeg  -72.2959 9.31903 4.03127
LeftLeg  105.755 -17.2466 11.6519
LeftFoot  -44.9335 -3.60938 -12.1758
LeftToes  1.69338e-011 3.79281e-011 -2.20049e-011
72
root  -3.93494 24.2199 83.6091 -165.002 9.70494 -176.654
RightUpLeg  -75.1664 -3.64645 8.92649
RightLeg  101.257 20.4962 -17.4685
RightFoot  -42.2537 2.47845 8.98884
RightToes  -1.16415e-010 -3.18055e-015 -2.98177e-016
Spine  34.5111 0.278498 5.26589
Spine1  -0.936403 -0.285165 4.08727
HEad  -16.2415 0.94041 1.85892
LeftShoulder1  -3.88251e-019 9.70628e-020 -3.87848e-018
LeftArm  -14.9744 0.229645 -46.0475
LeftForeArm  9.88746 -38.5918 9.51668
LeftHand  -2.95356 -8.23042 25.7669
RightShoulder  4.97998 9.36386 24.168
RightArm  -3.33053 -33.3535 30.6871
RightForeArm  4.34541 36.8531 -20.7307
RightHand  -1.67091 2.27203 -24.6928
LeftUpLeg  -71.9711 9.49881 4.01609
LeftLeg  104.836 -17.3054 12.37
LeftFoot  -44.4984 -3.61652 -12.3813
LeftToes  1.69338e-011 3.79281e-011 -2.20049e-011
73
root  -3.88213 24.5229 83.4017 -164.391 10.3302 -176.66
RightUpLeg  -74.6351 -3.21165 8.86911
RightLeg  100.274 20.124 -17.2417
RightFoot  -42.2694 2.45386 8.88919
RightToes  -1.16415e-010 -3.18055e-015 -2.98177e-016
Spine  34.4874 0.261173 5.25955
Spine1  -1.3905 -0.477025 5.13984
HEad  -16.6604 1.79064 1.84329
LeftShoulder1  -3.88251e-019 9.70628e-020 -3.87848e-018
LeftArm  -14.0377 1.13627 -44.5776
LeftForeArm  10.8302 -38.7741 9.62479
LeftHand  -2.7588 -7.69375 25.1125
RightShoulder  4.98139 9.35885 24.1803
RightArm  -2.41725 -33.7389 29.9033
RightForeArm  4.90462 37.6236 -21.3064
RightHand  -1.05082 1.13726 -18.3038
LeftUpLeg  -71.2123 9.64681 3.83137
LeftLeg  103.504 -17.3305 13.328
LeftFoot  -44.5433 -3.71127 -12.6933
LeftToes  1.69338e-011 3.79281e-011 -2.20049e-011
